<svg width="94" height="95" viewBox="0 0 94 95" fill="none" xmlns="http://www.w3.org/2000/svg">
<path d="M55.3319 94.34L47.8719 81.72H44.7019V75.09H51.6519L54.8719 80.53L68.3619 53.72L77.9919 75.09H93.6319V81.72H73.7119L68.0319 69.12L55.3319 94.34Z" fill="#FF647D"/>
<path d="M39.7719 42.15V0.989996H33.1419V5.07C30.7405 2.91963 27.8522 1.38545 24.726 0.599684C21.5998 -0.186079 18.3294 -0.199857 15.1966 0.559536C12.0639 1.31893 9.16278 2.82872 6.74336 4.95878C4.32393 7.08884 2.45876 9.77528 1.30859 12.7866C0.158412 15.7979 -0.242264 19.0437 0.141091 22.2443C0.524447 25.4448 1.68033 28.5042 3.50914 31.1587C5.33794 33.8132 7.78479 35.9831 10.6388 37.4816C13.4928 38.98 16.6684 39.7619 19.8919 39.76C24.7849 39.7638 29.5056 37.9539 33.1419 34.68V42.15H19.9019C14.6337 42.1473 9.57957 44.2348 5.84875 47.9544C2.11792 51.674 0.0151548 56.7218 0.00191206 61.99V73.99C0.00191206 79.2598 2.09535 84.3139 5.8217 88.0402C9.54805 91.7666 14.6021 93.86 19.8719 93.86C25.1418 93.86 30.1958 91.7666 33.9221 88.0402C37.6485 84.3139 39.7419 79.2598 39.7419 73.99V42.15H39.7719ZM33.1419 73.99C33.1419 77.5015 31.747 80.8691 29.264 83.3521C26.781 85.8351 23.4134 87.23 19.9019 87.23C16.3904 87.23 13.0228 85.8351 10.5398 83.3521C8.05684 80.8691 6.66191 77.5015 6.66191 73.99V61.99C6.67512 58.4854 8.07524 55.1285 10.5562 52.6531C13.0372 50.1778 16.3973 48.7853 19.9019 48.78H33.1419V73.99ZM19.8919 33.13C17.2689 33.132 14.7042 32.356 12.5223 30.9001C10.3404 29.4443 8.63929 27.3741 7.63414 24.9513C6.62899 22.5285 6.36497 19.8621 6.87548 17.2892C7.38599 14.7164 8.64809 12.3527 10.5021 10.4973C12.3562 8.64186 14.7189 7.37797 17.2913 6.86552C19.8638 6.35307 22.5305 6.61508 24.954 7.6184C27.3775 8.62172 29.449 10.3213 30.9065 12.5021C32.364 14.6829 33.1419 17.247 33.1419 19.87C33.1366 23.3834 31.7393 26.7516 29.2558 29.2369C26.7724 31.7222 23.4053 33.1221 19.8919 33.13Z" fill="#9164CC"/>
<path d="M69.282 48.78C74.6534 48.7756 79.873 46.9974 84.13 43.7216C88.387 40.4458 91.4429 35.8558 92.8232 30.6647C94.2034 25.4736 93.8307 19.972 91.7628 15.0145C89.695 10.0571 86.0478 5.92126 81.3879 3.2496C76.728 0.577952 71.3162 -0.479982 65.9933 0.240148C60.6703 0.960278 55.7342 3.41816 51.9516 7.23196C48.1691 11.0458 45.752 16.002 45.0758 21.3307C44.3995 26.6594 45.502 32.0623 48.212 36.7L53.942 33.35C51.9652 29.9696 51.1605 26.0308 51.6529 22.1459C52.1452 18.261 53.907 14.6475 56.6645 11.867C59.422 9.08653 63.0208 7.29477 66.9015 6.7702C70.7822 6.24563 74.7274 7.01763 78.1242 8.96623C81.521 10.9148 84.1789 13.9309 85.685 17.5456C87.1911 21.1604 87.461 25.1715 86.4527 28.9554C85.4444 32.7394 83.2145 36.0843 80.1094 38.4704C77.0043 40.8565 73.198 42.15 69.282 42.15H39.772V48.78H69.282Z" fill="#A5C5ED"/>
</svg>
