<svg width="165" height="50" viewBox="0 0 165 50" fill="none" xmlns="http://www.w3.org/2000/svg">
<path d="M156.679 27.0246C156.672 26.5348 156.762 26.0484 156.944 25.5936C157.126 25.1388 157.396 24.7245 157.739 24.3746C158.086 24.0253 158.499 23.7481 158.954 23.5589C159.408 23.3697 159.896 23.2723 160.389 23.2723C160.881 23.2723 161.369 23.3697 161.824 23.5589C162.279 23.7481 162.691 24.0253 163.039 24.3746C163.739 25.0906 164.131 26.0523 164.131 27.0538C164.131 28.0552 163.739 29.0169 163.039 29.7329C162.334 30.432 161.381 30.8243 160.389 30.8243C159.396 30.8243 158.443 30.432 157.739 29.7329C157.392 29.3793 157.12 28.9598 156.937 28.4992C156.755 28.0386 156.667 27.5462 156.679 27.0511M157.331 27.0511C157.323 27.4613 157.4 27.8687 157.554 28.2485C157.709 28.6284 157.94 28.9729 158.232 29.2612C158.518 29.55 158.859 29.7791 159.235 29.9355C159.611 30.0919 160.014 30.1724 160.42 30.1724C160.827 30.1724 161.23 30.0919 161.606 29.9355C161.982 29.7791 162.323 29.55 162.609 29.2612C163.181 28.6685 163.5 27.8772 163.5 27.0538C163.5 26.2303 163.181 25.439 162.609 24.8463C162.324 24.5543 161.984 24.3223 161.608 24.1638C161.232 24.0054 160.828 23.9238 160.42 23.9238C160.013 23.9238 159.609 24.0054 159.233 24.1638C158.857 24.3223 158.516 24.5543 158.232 24.8463C157.94 25.1338 157.71 25.4774 157.555 25.8563C157.4 26.2353 157.324 26.6418 157.331 27.0511ZM161.041 28.9591L160.097 27.6553H159.853V28.9326H159.111V25.1484H160.59C160.754 25.1431 160.917 25.1718 161.07 25.2328C161.222 25.2938 161.36 25.3857 161.475 25.5027C161.59 25.6198 161.68 25.7594 161.738 25.9128C161.797 26.0662 161.823 26.23 161.814 26.3939C161.83 26.6512 161.757 26.906 161.609 27.1168C161.461 27.3276 161.245 27.4819 160.998 27.5546L161.963 28.9114L161.041 28.9591ZM159.853 26.9239H160.59C160.659 26.9283 160.727 26.9185 160.792 26.8951C160.856 26.8717 160.915 26.8352 160.965 26.7879C161.015 26.7406 161.054 26.6836 161.081 26.6204C161.108 26.5571 161.121 26.489 161.12 26.4204C161.127 26.3523 161.119 26.2835 161.097 26.2186C161.075 26.1537 161.04 26.0942 160.993 26.0441C160.947 25.9939 160.89 25.9543 160.827 25.9278C160.764 25.9013 160.696 25.8886 160.627 25.8904H159.901L159.853 26.9239Z" fill="#C2C2C2"/>
<path d="M63.9235 14.2251H64.6867V17.0871C63.9144 17.7294 62.9347 18.0685 61.9307 18.0411C61.4126 18.0684 60.8945 17.99 60.4077 17.8105C59.921 17.6311 59.4759 17.3544 59.0995 16.9974C58.7232 16.6404 58.4235 16.2104 58.2186 15.7338C58.0138 15.2572 57.9082 14.7439 57.9082 14.2251C57.9082 13.7064 58.0138 13.193 58.2186 12.7164C58.4235 12.2398 58.7232 11.8099 59.0995 11.4528C59.4759 11.0958 59.921 10.8192 60.4077 10.6397C60.8945 10.4603 61.4126 10.3818 61.9307 10.4091C62.4434 10.3833 62.9559 10.4642 63.4358 10.6467C63.9156 10.8291 64.3524 11.1092 64.7185 11.4691L64.2256 11.9726C63.8648 11.5838 63.4125 11.2914 62.9099 11.122C62.4072 10.9527 61.8702 10.9117 61.3477 11.0029C60.8251 11.0941 60.3337 11.3146 59.9182 11.6442C59.5026 11.9738 59.1761 12.4022 58.9684 12.8902C58.7607 13.3783 58.6784 13.9106 58.7289 14.4386C58.7795 14.9666 58.9613 15.4735 59.2578 15.9133C59.5543 16.3531 59.9562 16.7117 60.4267 16.9565C60.8972 17.2014 61.4215 17.3246 61.9519 17.315C62.6513 17.3369 63.339 17.1325 63.9129 16.732L63.9235 14.2251Z" fill="#FF647D"/>
<path d="M73.9845 17.9775L72.2673 15.5661C72.0684 15.5878 71.8684 15.5984 71.6684 15.5979H69.6544V17.9775H68.8594V10.4728H71.6684C73.5764 10.4728 74.737 11.4374 74.737 13.0433C74.7627 13.5733 74.6063 14.0961 74.294 14.5251C73.9817 14.9541 73.5321 15.2634 73.0199 15.4018L74.8536 17.9775H73.9845ZM73.9421 13.0433C73.9421 11.8455 73.1471 11.1565 71.6472 11.1565H69.6544V14.9195H71.6472C73.1471 14.9195 73.9421 14.2252 73.9421 13.0433Z" fill="#FF647D"/>
<path d="M78.4785 14.7711V10.4728H79.2735V14.7393C79.2735 16.5201 80.1056 17.3363 81.5684 17.3363C83.0312 17.3363 83.8739 16.5201 83.8739 14.7393V10.4993H84.6477V14.7976C84.6477 16.9547 83.487 18.0676 81.5684 18.0676C79.6498 18.0676 78.4785 16.9547 78.4785 14.7976" fill="#FF647D"/>
<path d="M94.8699 13.0433C94.8699 14.6333 93.7092 15.6085 91.8012 15.6085H89.7819V17.9775H88.9922V10.4728H91.8012C93.7092 10.4728 94.8699 11.4374 94.8699 13.0433ZM94.0749 13.0433C94.0749 11.8455 93.2799 11.1565 91.78 11.1565H89.7819V14.9089H91.78C93.2799 14.9089 94.0749 14.2252 94.0749 13.0433Z" fill="#FF647D"/>
<path d="M97.9288 14.2252C97.9035 13.4406 98.1129 12.6663 98.5303 12.0014C98.9476 11.3366 99.554 10.8115 100.272 10.4933C100.989 10.1751 101.785 10.0783 102.558 10.2153C103.331 10.3524 104.046 10.717 104.61 11.2626C105.175 11.8081 105.563 12.5097 105.727 13.2775C105.89 14.0453 105.821 14.8444 105.527 15.5724C105.234 16.3005 104.729 16.9243 104.079 17.3641C103.429 17.804 102.662 18.0397 101.877 18.0411C101.364 18.0642 100.851 17.9824 100.37 17.8005C99.8896 17.6186 99.451 17.3406 99.0814 16.9834C98.7118 16.6262 98.4189 16.1973 98.2208 15.7231C98.0226 15.2488 97.9232 14.7391 97.9288 14.2252ZM105.02 14.2252C105.034 13.5919 104.858 12.969 104.515 12.4362C104.173 11.9035 103.679 11.4852 103.097 11.235C102.515 10.9849 101.872 10.9142 101.249 11.032C100.627 11.1498 100.054 11.4509 99.6038 11.8965C99.1536 12.3421 98.8468 12.912 98.7226 13.5331C98.5985 14.1542 98.6626 14.7983 98.9069 15.3827C99.1511 15.9671 99.5644 16.4653 100.094 16.8134C100.623 17.1614 101.244 17.3435 101.877 17.3363C102.291 17.3501 102.703 17.2793 103.089 17.1282C103.474 16.9772 103.825 16.7491 104.119 16.4578C104.413 16.1666 104.645 15.8183 104.8 15.4344C104.955 15.0505 105.03 14.639 105.02 14.2252Z" fill="#FF647D"/>
<path d="M57.1143 31.4342C57.1143 26.5582 60.909 22.9542 66.0924 22.9542C71.2758 22.9542 75.0653 26.5423 75.0653 31.4342C75.0653 36.326 71.244 39.9141 66.0924 39.9141C60.9408 39.9141 57.1143 36.3048 57.1143 31.4342ZM71.2228 31.4342C71.2228 28.3178 69.018 26.1872 66.0924 26.1872C63.1668 26.1872 60.9567 28.3072 60.9567 31.4342C60.9567 34.5611 63.1615 36.6864 66.0924 36.6864C69.0233 36.6864 71.2228 34.5664 71.2228 31.4342Z" fill="#C2C2C2"/>
<path d="M77.9102 23.2298H80.2792C80.4669 23.2298 80.6527 23.2668 80.8261 23.3388C80.9994 23.4108 81.1568 23.5163 81.2892 23.6492C81.4217 23.7822 81.5266 23.94 81.5979 24.1135C81.6693 24.2871 81.7056 24.4731 81.7049 24.6608V36.5645H89.9305V39.6385H77.9102V23.2298Z" fill="#C2C2C2"/>
<path d="M93.9583 26.325H88.7061V23.2351H103.016V26.325H97.7637V38.2128C97.7644 38.4003 97.728 38.586 97.6566 38.7593C97.5852 38.9326 97.4802 39.09 97.3477 39.2225C97.2152 39.3551 97.0577 39.46 96.8844 39.5314C96.7112 39.6028 96.5255 39.6392 96.338 39.6385H93.9689L93.9583 26.325Z" fill="#C2C2C2"/>
<path d="M117.746 36.5911V39.6385H105.026V23.2351H116.019C116.397 23.2351 116.759 23.3853 117.027 23.6527C117.294 23.9201 117.444 24.2827 117.444 24.6608V26.2773H108.816V29.8442H116.437V32.7963H108.816V36.5911H117.746Z" fill="#C2C2C2"/>
<path d="M152.947 23.2298V38.2129C152.948 38.4003 152.911 38.586 152.84 38.7593C152.769 38.9326 152.664 39.09 152.531 39.2225C152.398 39.3551 152.241 39.4601 152.068 39.5315C151.894 39.6029 151.709 39.6393 151.521 39.6386H149.152V32.9129H141.7V39.6386H137.9V23.2086H140.275C140.653 23.21 141.016 23.3614 141.283 23.6296C141.55 23.8978 141.7 24.261 141.7 24.6396V29.6799H149.152V23.2298H152.947Z" fill="#C2C2C2"/>
<path d="M132.909 34.7414C132.414 35.3556 131.786 35.8498 131.073 36.1867C130.36 36.5235 129.579 36.6944 128.79 36.6865C128.093 36.7165 127.397 36.6012 126.746 36.3478C126.096 36.0944 125.505 35.7085 125.012 35.2146C124.518 34.7207 124.133 34.1295 123.88 33.4787C123.627 32.8279 123.513 32.1317 123.544 31.4342C123.513 30.7369 123.627 30.0409 123.88 29.3903C124.133 28.7398 124.518 28.149 125.012 27.6554C125.505 27.1619 126.096 26.7765 126.747 26.5237C127.397 26.271 128.093 26.1564 128.79 26.1872C129.575 26.1792 130.351 26.3452 131.063 26.6733C131.775 27.0014 132.405 27.4834 132.909 28.0846L135.347 25.8374C133.799 23.9612 131.435 22.9277 128.6 22.9277C123.491 22.9277 119.69 26.4681 119.69 31.4077C119.69 36.3472 123.491 39.8876 128.573 39.8876C130.579 39.9583 132.55 39.3474 134.165 38.1545C134.328 38.0279 134.461 37.8671 134.556 37.6836C134.651 37.5 134.704 37.298 134.713 37.0916C134.721 36.8852 134.685 36.6795 134.606 36.4887C134.527 36.2979 134.407 36.1266 134.255 35.9869L132.909 34.7414Z" fill="#C2C2C2"/>
<path d="M29.3253 50L25.3715 43.3114H23.6914V39.7975H27.3749L29.0815 42.6807L36.2312 28.4715L41.335 39.7975H49.6242V43.3114H39.0666L36.0563 36.6334L29.3253 50Z" fill="#FF647D"/>
<path d="M21.079 22.3394V0.524696H17.5651V2.68709C16.2924 1.5474 14.7616 0.734284 13.1047 0.317832C11.4478 -0.0986214 9.71452 -0.105924 8.05418 0.296553C6.39383 0.69903 4.85625 1.49921 3.57396 2.62814C2.29168 3.75707 1.30314 5.18088 0.693548 6.77685C0.0839577 8.37283 -0.1284 10.0931 0.0747781 11.7894C0.277956 13.4857 0.890574 15.1072 1.85983 16.514C2.82909 17.9209 4.12592 19.071 5.63855 19.8651C7.15118 20.6593 8.83424 21.0737 10.5427 21.0727C13.1359 21.0747 15.6379 20.1155 17.5651 18.3803V22.3394H10.548C7.75581 22.338 5.07715 23.4444 3.09982 25.4157C1.12249 27.3871 0.00803202 30.0624 0.00101339 32.8546V39.2145C0.00101339 42.0076 1.11053 44.6862 3.08549 46.6611C5.06044 48.6361 7.73906 49.7456 10.5321 49.7456C13.3251 49.7456 16.0037 48.6361 17.9786 46.6611C19.9536 44.6862 21.0631 42.0076 21.0631 39.2145V22.3394H21.079ZM17.5651 39.2145C17.5651 41.0756 16.8258 42.8605 15.5099 44.1764C14.1939 45.4924 12.409 46.2317 10.548 46.2317C8.6869 46.2317 6.90206 45.4924 5.58608 44.1764C4.27011 42.8605 3.5308 41.0756 3.5308 39.2145V32.8546C3.5378 30.9971 4.27986 29.218 5.59477 27.906C6.90969 26.5941 8.69051 25.8561 10.548 25.8533H17.5651V39.2145ZM10.5427 17.5588C9.15248 17.5599 7.79321 17.1486 6.63681 16.377C5.4804 15.6054 4.57881 14.5082 4.04608 13.2241C3.51335 11.9401 3.37342 10.5269 3.64399 9.16326C3.91456 7.79965 4.58347 6.54693 5.56611 5.56355C6.54875 4.58017 7.80097 3.91031 9.16437 3.63871C10.5278 3.36711 11.9411 3.50598 13.2256 4.03774C14.51 4.5695 15.6079 5.47026 16.3804 6.62608C17.1528 7.78191 17.5651 9.14087 17.5651 10.5311C17.5623 12.3932 16.8217 14.1783 15.5055 15.4955C14.1893 16.8127 12.4048 17.5546 10.5427 17.5588Z" fill="#9164CC"/>
<path d="M36.7193 25.8533C39.5662 25.8509 42.3326 24.9085 44.5888 23.1723C46.8449 21.4361 48.4646 19.0035 49.1961 16.2522C49.9276 13.5009 49.7301 10.5851 48.6341 7.95765C47.5382 5.3302 45.6052 3.13823 43.1355 1.72226C40.6657 0.306292 37.7975 -0.25441 34.9763 0.127257C32.1552 0.508924 29.539 1.81159 27.5343 3.8329C25.5296 5.85421 24.2485 8.481 23.8901 11.3052C23.5317 14.1294 24.116 16.9929 25.5523 19.4509L28.5892 17.6754C27.5415 15.8838 27.115 13.7963 27.3759 11.7373C27.6369 9.67827 28.5706 7.76313 30.0321 6.28948C31.4936 4.81582 33.4009 3.86619 35.4577 3.58817C37.5144 3.31015 39.6054 3.71931 41.4057 4.75206C43.206 5.78481 44.6147 7.38331 45.4129 9.29914C46.2111 11.215 46.3542 13.3408 45.8198 15.3463C45.2854 17.3518 44.1035 19.1246 42.4578 20.3892C40.8121 21.6538 38.7948 22.3394 36.7193 22.3394H21.0791V25.8533H36.7193Z" fill="#A5C5ED"/>
</svg>
